REM DIRINDEX 1\2,1\3,1\4,1\5,1\6,1\7,1\8
REM DIRNAME folder01,folder02,folder03,folder04,folder05,folder06,folder07,folder08
TITLE ""
FILE "31_Ch7_Health_Beauty_Words.mp3" MP3
  TRACK 01 AUDIO
    TITLE "0:"
    INDEX 01 00:00:00
  TRACK 02 AUDIO
    TITLE "8:cjc152_1667"
    INDEX 01 00:00:09
  TRACK 03 AUDIO
    TITLE "0:"
    INDEX 01 00:03:41
  TRACK 04 AUDIO
    TITLE "8:cjc152_1668"
    INDEX 01 00:04:38
  TRACK 05 AUDIO
    TITLE "0:"
    INDEX 01 00:05:52
  TRACK 06 AUDIO
    TITLE "2:cjc152_1669"
    INDEX 01 00:06:37
  TRACK 07 AUDIO
    TITLE "0:"
    INDEX 01 00:07:47
  TRACK 08 AUDIO
    TITLE "2:cjc152_1670"
    INDEX 01 00:07:70
  TRACK 09 AUDIO
    TITLE "0:"
    INDEX 01 00:08:72
  TRACK 10 AUDIO
    TITLE "2:cjc152_1671"
    INDEX 01 00:09:53
  TRACK 11 AUDIO
    TITLE "0:"
    INDEX 01 00:11:05
  TRACK 12 AUDIO
    TITLE "2:cjc152_1672"
    INDEX 01 00:11:39
  TRACK 13 AUDIO
    TITLE "0:"
    INDEX 01 00:12:60
  TRACK 14 AUDIO
    TITLE "2:cjc152_1673"
    INDEX 01 00:14:06
  TRACK 15 AUDIO
    TITLE "0:"
    INDEX 01 00:15:21
  TRACK 16 AUDIO
    TITLE "2:cjc152_1674"
    INDEX 01 00:15:56
  TRACK 17 AUDIO
    TITLE "0:"
    INDEX 01 00:17:14
  TRACK 18 AUDIO
    TITLE "2:cjc152_1675"
    INDEX 01 00:18:35
  TRACK 19 AUDIO
    TITLE "0:"
    INDEX 01 00:19:44
  TRACK 20 AUDIO
    TITLE "2:cjc152_1676"
    INDEX 01 00:20:00
  TRACK 21 AUDIO
    TITLE "0:"
    INDEX 01 00:21:27
  TRACK 22 AUDIO
    TITLE "2:cjc152_1677"
    INDEX 01 00:22:48
  TRACK 23 AUDIO
    TITLE "0:"
    INDEX 01 00:23:71
  TRACK 24 AUDIO
    TITLE "2:cjc152_1678"
    INDEX 01 00:24:27
  TRACK 25 AUDIO
    TITLE "0:"
    INDEX 01 00:26:01
  TRACK 26 AUDIO
    TITLE "2:cjc152_1679"
    INDEX 01 00:27:24
  TRACK 27 AUDIO
    TITLE "0:"
    INDEX 01 00:28:25
  TRACK 28 AUDIO
    TITLE "2:cjc152_1680"
    INDEX 01 00:28:57
  TRACK 29 AUDIO
    TITLE "0:"
    INDEX 01 00:30:12
  TRACK 30 AUDIO
    TITLE "2:cjc152_1681"
    INDEX 01 00:31:33
  TRACK 31 AUDIO
    TITLE "0:"
    INDEX 01 00:32:60
  TRACK 32 AUDIO
    TITLE "2:cjc152_1682"
    INDEX 01 00:33:15
  TRACK 33 AUDIO
    TITLE "0:"
    INDEX 01 00:34:42
  TRACK 34 AUDIO
    TITLE "2:cjc152_1683"
    INDEX 01 00:35:63
  TRACK 35 AUDIO
    TITLE "0:"
    INDEX 01 00:37:22
  TRACK 36 AUDIO
    TITLE "2:cjc152_1684"
    INDEX 01 00:37:54
  TRACK 37 AUDIO
    TITLE "0:"
    INDEX 01 00:39:31
  TRACK 38 AUDIO
    TITLE "2:cjc152_1685"
    INDEX 01 00:40:52
  TRACK 39 AUDIO
    TITLE "0:"
    INDEX 01 00:41:63
  TRACK 40 AUDIO
    TITLE "2:cjc152_1686"
    INDEX 01 00:42:21
  TRACK 41 AUDIO
    TITLE "0:"
    INDEX 01 00:43:23
  TRACK 42 AUDIO
    TITLE "2:cjc152_1687"
    INDEX 01 00:44:44
  TRACK 43 AUDIO
    TITLE "0:"
    INDEX 01 00:45:59
  TRACK 44 AUDIO
    TITLE "2:cjc152_1688"
    INDEX 01 00:46:13
  TRACK 45 AUDIO
    TITLE "0:"
    INDEX 01 00:47:19
  TRACK 46 AUDIO
    TITLE "2:cjc152_1689"
    INDEX 01 00:48:38
  TRACK 47 AUDIO
    TITLE "0:"
    INDEX 01 00:49:37
  TRACK 48 AUDIO
    TITLE "2:cjc152_1690"
    INDEX 01 00:49:69
  TRACK 49 AUDIO
    TITLE "0:"
    INDEX 01 00:50:74
  TRACK 50 AUDIO
    TITLE "2:cjc152_1691"
    INDEX 01 00:52:20
  TRACK 51 AUDIO
    TITLE "0:"
    INDEX 01 00:53:41
  TRACK 52 AUDIO
    TITLE "2:cjc152_1692"
    INDEX 01 00:53:70
  TRACK 53 AUDIO
    TITLE "0:"
    INDEX 01 00:55:36
  TRACK 54 AUDIO
    TITLE "2:cjc152_1693"
    INDEX 01 00:56:57
  TRACK 55 AUDIO
    TITLE "0:"
    INDEX 01 00:57:66
  TRACK 56 AUDIO
    TITLE "2:cjc152_1694"
    INDEX 01 00:58:20
  TRACK 57 AUDIO
    TITLE "0:"
    INDEX 01 00:59:28
  TRACK 58 AUDIO
    TITLE "2:cjc152_1695"
    INDEX 01 01:00:49
  TRACK 59 AUDIO
    TITLE "0:"
    INDEX 01 01:01:56
  TRACK 60 AUDIO
    TITLE "2:cjc152_1696"
    INDEX 01 01:02:12
  TRACK 61 AUDIO
    TITLE "0:"
    INDEX 01 01:03:49
  TRACK 62 AUDIO
    TITLE "2:cjc152_1697"
    INDEX 01 01:04:70
  TRACK 63 AUDIO
    TITLE "0:"
    INDEX 01 01:05:60
  TRACK 64 AUDIO
    TITLE "2:cjc152_1698"
    INDEX 01 01:06:16
  TRACK 65 AUDIO
    TITLE "0:"
    INDEX 01 01:07:43
  TRACK 66 AUDIO
    TITLE "2:cjc152_1699"
    INDEX 01 01:08:66
  TRACK 67 AUDIO
    TITLE "0:"
    INDEX 01 01:09:65
  TRACK 68 AUDIO
    TITLE "2:cjc152_1700"
    INDEX 01 01:10:22
  TRACK 69 AUDIO
    TITLE "0:"
    INDEX 01 01:11:17
  TRACK 70 AUDIO
    TITLE "2:cjc152_1701"
    INDEX 01 01:12:40
  TRACK 71 AUDIO
    TITLE "0:"
    INDEX 01 01:14:02
  TRACK 72 AUDIO
    TITLE "2:cjc152_1702"
    INDEX 01 01:14:33
  TRACK 73 AUDIO
    TITLE "0:"
    INDEX 01 01:16:16
  TRACK 74 AUDIO
    TITLE "2:cjc152_1703"
    INDEX 01 01:17:39
  TRACK 75 AUDIO
    TITLE "0:"
    INDEX 01 01:18:68
  TRACK 76 AUDIO
    TITLE "2:cjc152_1704"
    INDEX 01 01:19:23
  TRACK 77 AUDIO
    TITLE "0:"
    INDEX 01 01:21:06
  TRACK 78 AUDIO
    TITLE "2:cjc152_1705"
    INDEX 01 01:22:27
  TRACK 79 AUDIO
    TITLE "0:"
    INDEX 01 01:23:54
  TRACK 80 AUDIO
    TITLE "2:cjc152_1706"
    INDEX 01 01:24:10
  TRACK 81 AUDIO
    TITLE "0:"
    INDEX 01 01:25:57
  TRACK 82 AUDIO
    TITLE "2:cjc152_1707"
    INDEX 01 01:27:04
  TRACK 83 AUDIO
    TITLE "0:"
    INDEX 01 01:28:22
  TRACK 84 AUDIO
    TITLE "2:cjc152_1708"
    INDEX 01 01:28:51
  TRACK 85 AUDIO
    TITLE "0:"
    INDEX 01 01:30:01
  TRACK 86 AUDIO
    TITLE "2:cjc152_1709"
    INDEX 01 01:31:22
  TRACK 87 AUDIO
    TITLE "0:"
    INDEX 01 01:32:43
  TRACK 88 AUDIO
    TITLE "2:cjc152_1710"
    INDEX 01 01:33:03
  TRACK 89 AUDIO
    TITLE "0:"
    INDEX 01 01:34:40
  TRACK 90 AUDIO
    TITLE "2:cjc152_1711"
    INDEX 01 01:35:61
  TRACK 91 AUDIO
    TITLE "0:"
    INDEX 01 01:36:64
  TRACK 92 AUDIO
    TITLE "2:cjc152_1712"
    INDEX 01 01:37:21
  TRACK 93 AUDIO
    TITLE "0:"
    INDEX 01 01:38:28
  TRACK 94 AUDIO
    TITLE "2:cjc152_1713"
    INDEX 01 01:39:51
  TRACK 95 AUDIO
    TITLE "0:"
    INDEX 01 01:40:74
  TRACK 96 AUDIO
    TITLE "2:cjc152_1714"
    INDEX 01 01:41:30
  TRACK 97 AUDIO
    TITLE "0:"
    INDEX 01 01:42:49
  TRACK 98 AUDIO
    TITLE "2:cjc152_1715"
    INDEX 01 01:43:70
  TRACK 99 AUDIO
    TITLE "0:"
    INDEX 01 01:44:72
  TRACK 100 AUDIO
    TITLE "2:cjc152_1716"
    INDEX 01 01:45:28
  TRACK 101 AUDIO
    TITLE "0:"
    INDEX 01 01:46:49
  TRACK 102 AUDIO
    TITLE "2:cjc152_1717"
    INDEX 01 01:47:70
  TRACK 103 AUDIO
    TITLE "0:"
    INDEX 01 01:49:16
  TRACK 104 AUDIO
    TITLE "2:cjc152_1718"
    INDEX 01 01:49:47
  TRACK 105 AUDIO
    TITLE "0:"
    INDEX 01 01:51:09
  TRACK 106 AUDIO
    TITLE "2:cjc152_1719"
    INDEX 01 01:52:32
  TRACK 107 AUDIO
    TITLE "0:"
    INDEX 01 01:53:61
  TRACK 108 AUDIO
    TITLE "2:cjc152_1720"
    INDEX 01 01:54:15
  TRACK 109 AUDIO
    TITLE "0:"
    INDEX 01 01:55:30
  TRACK 110 AUDIO
    TITLE "2:cjc152_1721"
    INDEX 01 01:56:51
  TRACK 111 AUDIO
    TITLE "0:"
    INDEX 01 01:58:32
  TRACK 112 AUDIO
    TITLE "2:cjc152_1722"
    INDEX 01 01:58:62
  TRACK 113 AUDIO
    TITLE "0:"
    INDEX 01 02:00:63
  TRACK 114 AUDIO
    TITLE "2:cjc152_1723"
    INDEX 01 02:02:09
  TRACK 115 AUDIO
    TITLE "0:"
    INDEX 01 02:03:41
  TRACK 116 AUDIO
    TITLE "2:cjc152_1724"
    INDEX 01 02:03:71
  TRACK 117 AUDIO
    TITLE "0:"
    INDEX 01 02:05:11
  TRACK 118 AUDIO
    TITLE "2:cjc152_1725"
    INDEX 01 02:06:34
  TRACK 119 AUDIO
    TITLE "0:"
    INDEX 01 02:07:69
  TRACK 120 AUDIO
    TITLE "2:cjc152_1726"
    INDEX 01 02:08:23
  TRACK 121 AUDIO
    TITLE "0:"
    INDEX 01 02:09:62
